<mxfile host="app.diagrams.net" modified="2023-10-03T14:49:14.882Z" agent="Mozilla/5.0 (Macintosh; Intel Mac OS X 10.15; rv:109.0) Gecko/20100101 Firefox/118.0" etag="3cbbxkVSh58BHTjlFXHA" version="21.6.1" type="github">
  <diagram name="Page-1" id="sMLekQ1WphEMYUQIr-nb">
    <mxGraphModel dx="1240" dy="793" grid="1" gridSize="10" guides="1" tooltips="1" connect="1" arrows="1" fold="1" page="1" pageScale="1" pageWidth="850" pageHeight="1100" math="0" shadow="0">
      <root>
        <mxCell id="0" />
        <mxCell id="1" parent="0" />
        <mxCell id="r0wEt2vCEHU35BpyAjr6-1" value="" style="sketch=0;points=[[0,0,0],[0.25,0,0],[0.5,0,0],[0.75,0,0],[1,0,0],[0,1,0],[0.25,1,0],[0.5,1,0],[0.75,1,0],[1,1,0],[0,0.25,0],[0,0.5,0],[0,0.75,0],[1,0.25,0],[1,0.5,0],[1,0.75,0]];outlineConnect=0;fontColor=#232F3E;gradientColor=#945DF2;gradientDirection=north;fillColor=#5A30B5;strokeColor=#ffffff;dashed=0;verticalLabelPosition=bottom;verticalAlign=top;align=center;html=1;fontSize=12;fontStyle=0;aspect=fixed;shape=mxgraph.aws4.resourceIcon;resIcon=mxgraph.aws4.site_to_site_vpn;" vertex="1" parent="1">
          <mxGeometry x="300" y="170" width="78" height="78" as="geometry" />
        </mxCell>
        <mxCell id="r0wEt2vCEHU35BpyAjr6-2" value="VPC" style="points=[[0,0],[0.25,0],[0.5,0],[0.75,0],[1,0],[1,0.25],[1,0.5],[1,0.75],[1,1],[0.75,1],[0.5,1],[0.25,1],[0,1],[0,0.75],[0,0.5],[0,0.25]];outlineConnect=0;gradientColor=none;html=1;whiteSpace=wrap;fontSize=12;fontStyle=0;container=1;pointerEvents=0;collapsible=0;recursiveResize=0;shape=mxgraph.aws4.group;grIcon=mxgraph.aws4.group_vpc;strokeColor=#248814;fillColor=none;verticalAlign=top;align=left;spacingLeft=30;fontColor=#AAB7B8;dashed=0;" vertex="1" parent="1">
          <mxGeometry x="60" y="90" width="130" height="130" as="geometry" />
        </mxCell>
        <mxCell id="r0wEt2vCEHU35BpyAjr6-3" value="" style="outlineConnect=0;dashed=0;verticalLabelPosition=bottom;verticalAlign=top;align=center;html=1;shape=mxgraph.aws3.ec2;fillColor=#F58534;gradientColor=none;" vertex="1" parent="r0wEt2vCEHU35BpyAjr6-2">
          <mxGeometry x="10" y="37" width="76.5" height="93" as="geometry" />
        </mxCell>
        <mxCell id="r0wEt2vCEHU35BpyAjr6-4" value="" style="outlineConnect=0;dashed=0;verticalLabelPosition=bottom;verticalAlign=top;align=center;html=1;shape=mxgraph.aws3.elastic_network_interface;fillColor=#F58534;gradientColor=none;" vertex="1" parent="1">
          <mxGeometry x="60" y="270" width="69" height="72" as="geometry" />
        </mxCell>
        <mxCell id="r0wEt2vCEHU35BpyAjr6-5" value="" style="outlineConnect=0;dashed=0;verticalLabelPosition=bottom;verticalAlign=top;align=center;html=1;shape=mxgraph.aws3.internet_gateway;fillColor=#F58536;gradientColor=none;" vertex="1" parent="1">
          <mxGeometry x="60" y="410" width="69" height="72" as="geometry" />
        </mxCell>
        <mxCell id="r0wEt2vCEHU35BpyAjr6-6" value="" style="outlineConnect=0;dashed=0;verticalLabelPosition=bottom;verticalAlign=top;align=center;html=1;shape=mxgraph.aws3.direct_connect;fillColor=#F58536;gradientColor=none;" vertex="1" parent="1">
          <mxGeometry x="330" y="360" width="67.5" height="81" as="geometry" />
        </mxCell>
        <mxCell id="r0wEt2vCEHU35BpyAjr6-7" value="" style="sketch=0;pointerEvents=1;shadow=0;dashed=0;html=1;strokeColor=none;fillColor=#434445;aspect=fixed;labelPosition=center;verticalLabelPosition=bottom;verticalAlign=top;align=center;outlineConnect=0;shape=mxgraph.vvd.vcenter_server;" vertex="1" parent="1">
          <mxGeometry x="84" y="580" width="48" height="50" as="geometry" />
        </mxCell>
        <mxCell id="r0wEt2vCEHU35BpyAjr6-8" value="" style="sketch=0;pointerEvents=1;shadow=0;dashed=0;html=1;strokeColor=none;fillColor=#434445;aspect=fixed;labelPosition=center;verticalLabelPosition=bottom;verticalAlign=top;align=center;outlineConnect=0;shape=mxgraph.vvd.nsx_manager;" vertex="1" parent="1">
          <mxGeometry x="79" y="670" width="50" height="50" as="geometry" />
        </mxCell>
        <mxCell id="r0wEt2vCEHU35BpyAjr6-9" value="" style="sketch=0;pointerEvents=1;shadow=0;dashed=0;html=1;strokeColor=none;fillColor=#434445;aspect=fixed;labelPosition=center;verticalLabelPosition=bottom;verticalAlign=top;align=center;outlineConnect=0;shape=mxgraph.vvd.nsx_edge_and_load_balancer;" vertex="1" parent="1">
          <mxGeometry x="10" y="690" width="50" height="40.5" as="geometry" />
        </mxCell>
        <mxCell id="r0wEt2vCEHU35BpyAjr6-10" value="" style="sketch=0;pointerEvents=1;shadow=0;dashed=0;html=1;strokeColor=none;fillColor=#434445;aspect=fixed;labelPosition=center;verticalLabelPosition=bottom;verticalAlign=top;align=center;outlineConnect=0;shape=mxgraph.vvd.vpn;" vertex="1" parent="1">
          <mxGeometry x="398" y="210" width="50" height="50" as="geometry" />
        </mxCell>
        <mxCell id="r0wEt2vCEHU35BpyAjr6-11" value="" style="sketch=0;pointerEvents=1;shadow=0;dashed=0;html=1;strokeColor=none;fillColor=#434445;aspect=fixed;labelPosition=center;verticalLabelPosition=bottom;verticalAlign=top;align=center;outlineConnect=0;shape=mxgraph.vvd.nsx_controller;" vertex="1" parent="1">
          <mxGeometry x="79" y="740" width="50" height="50" as="geometry" />
        </mxCell>
        <mxCell id="r0wEt2vCEHU35BpyAjr6-12" value="" style="outlineConnect=0;dashed=0;verticalLabelPosition=bottom;verticalAlign=top;align=center;html=1;shape=mxgraph.aws3.router;fillColor=#F58534;gradientColor=none;" vertex="1" parent="1">
          <mxGeometry x="180" y="300" width="69" height="72" as="geometry" />
        </mxCell>
        <mxCell id="r0wEt2vCEHU35BpyAjr6-13" value="" style="outlineConnect=0;dashed=0;verticalLabelPosition=bottom;verticalAlign=top;align=center;html=1;shape=mxgraph.aws3.router;fillColor=#1ba1e2;strokeColor=#006EAF;fontColor=#ffffff;" vertex="1" parent="1">
          <mxGeometry x="180" y="400" width="69" height="72" as="geometry" />
        </mxCell>
        <mxCell id="r0wEt2vCEHU35BpyAjr6-14" value="" style="sketch=0;pointerEvents=1;shadow=0;dashed=0;html=1;strokeColor=none;fillColor=#434445;aspect=fixed;labelPosition=center;verticalLabelPosition=bottom;verticalAlign=top;align=center;outlineConnect=0;shape=mxgraph.vvd.networks;" vertex="1" parent="1">
          <mxGeometry x="190" y="500" width="60" height="36.6" as="geometry" />
        </mxCell>
      </root>
    </mxGraphModel>
  </diagram>
</mxfile>
